<svg width="453" height="605" viewBox="0 0 453 605" fill="none" xmlns="http://www.w3.org/2000/svg">
<g clip-path="url(#clip0_10315_115841)">
<rect width="453" height="605" rx="8" fill="url(#paint0_linear_10315_115841)"/>
<rect width="453" height="605" rx="8" fill="url(#paint1_linear_10315_115841)"/>
<path d="M355.175 308.205H351.586C351.004 308.205 350.616 307.526 350.907 307.041L359.927 289.387L350.81 272.122C350.519 271.54 350.907 270.958 351.489 270.958H355.078C358.375 270.958 360.606 272.316 362.061 274.935L370.5 289.484L362.158 304.034C360.703 306.556 358.569 308.205 355.175 308.205Z" fill="white"/>
<path d="M293.582 289.388C291.254 289.388 289.799 289.485 288.635 289.679C285.823 290.067 283.689 295.208 284.853 296.371C285.241 296.565 285.823 296.565 286.695 296.371C288.053 296.08 290.575 295.692 294.067 295.692C299.014 295.692 302.312 296.662 302.312 301.124V304.616H294.552C285.823 304.616 280.294 307.429 280.294 315.48C280.294 323.143 285.435 326.538 294.455 326.538C304.834 326.538 309.296 322.949 309.296 314.995V301.221C309.393 292.201 302.991 289.388 293.582 289.388ZM302.215 314.801C302.215 319.651 298.82 320.427 294.358 320.427C290.769 320.427 287.471 319.748 287.471 315.48C287.471 311.794 289.799 310.339 294.552 310.339H302.215V314.801Z" fill="white"/>
<path d="M128.007 289.29C125.679 289.29 124.224 289.387 123.06 289.581C120.248 289.969 118.114 295.11 119.278 296.274C119.666 296.468 120.248 296.468 121.121 296.274C122.478 295.983 125 295.595 128.492 295.595C133.439 295.595 136.737 296.565 136.737 301.124V304.616H129.074C120.345 304.616 114.816 307.428 114.816 315.479C114.816 323.142 119.957 326.634 128.977 326.634C139.356 326.634 143.818 323.045 143.818 315.091V301.124C143.818 292.103 137.416 289.29 128.007 289.29ZM136.64 314.8C136.64 319.747 133.245 320.426 128.783 320.426C125.194 320.426 121.897 319.747 121.897 315.479C121.897 311.793 124.224 310.338 128.977 310.338H136.64V314.8Z" fill="white"/>
<path d="M125.486 279.008C123.546 279.008 121.898 280.366 121.413 282.112C121.219 282.791 121.219 284.343 121.219 284.343C121.219 284.828 121.607 285.313 122.189 285.313H136.447C138.387 285.313 140.036 283.955 140.521 282.209C140.812 281.336 140.715 279.978 140.715 279.978C140.715 279.493 140.327 279.008 139.745 279.008H125.486Z" fill="white"/>
<path d="M205.023 312.667C205.023 321.494 209.776 326.635 220.349 326.635H220.446C231.018 326.635 235.771 321.494 235.771 312.667V295.111C235.771 292.298 233.54 290.067 230.727 290.067H229.563C228.982 290.067 228.497 290.552 228.497 291.134V312.667C228.497 317.226 227.042 319.748 220.446 319.748C213.85 319.748 212.395 317.226 212.395 312.667V295.111C212.395 292.88 210.843 290.94 208.806 290.261C207.933 289.97 206.284 290.067 206.284 290.067C205.702 290.067 205.217 290.552 205.217 291.134L205.023 312.667Z" fill="white"/>
<path d="M196.585 290.066C196.585 290.066 195.227 289.872 193.869 290.26C191.638 290.842 190.086 292.782 189.989 295.013V314.315C189.989 323.821 186.691 327.216 184.363 329.253C183.684 329.835 182.714 330.708 182.714 330.708C182.423 331.096 182.617 331.678 183.102 332.066L184.072 332.842C184.46 333.133 184.848 333.424 185.333 333.618C187.467 334.491 189.989 334.006 191.541 332.26C191.541 332.26 192.996 330.805 193.481 329.932C195.906 326.44 197.749 321.784 197.749 313.927V295.304V291.23C197.749 290.551 197.167 290.066 196.585 290.066Z" fill="white"/>
<path d="M149.929 311.115V304.907C149.929 294.82 155.361 289.388 166.515 289.388C177.961 289.388 182.908 294.529 182.908 304.907V311.115C182.908 321.106 177.476 326.635 166.515 326.635C154.973 326.635 149.929 321.494 149.929 311.115ZM175.439 304.907C175.439 298.893 173.402 296.274 166.418 296.274C159.435 296.274 157.301 298.893 157.301 304.907V311.115C157.301 317.129 159.338 319.651 166.418 319.651C173.402 319.651 175.439 317.129 175.439 311.115V304.907Z" fill="white"/>
<path d="M274.667 276.584C274.667 276.002 274.182 275.517 273.6 275.517C273.6 275.517 272.145 275.323 270.981 275.711C268.847 276.39 267.295 278.233 267.295 280.561V294.14C265.355 291.036 261.864 289.484 256.82 289.484C246.829 289.484 241.785 294.722 241.785 305.198V311.309C241.785 321.59 247.217 326.731 258.275 326.731C268.653 326.731 274.764 321.687 274.764 311.309V302.87V276.584H274.667ZM258.178 319.747C251 319.747 249.157 317.225 249.157 311.212V305.004C249.157 298.99 251.194 296.371 258.178 296.371C265.161 296.371 267.295 298.893 267.295 304.907V306.847V311.115C267.392 317.128 265.355 319.747 258.178 319.747Z" fill="white"/>
<path d="M82.9043 299.184C82.9043 304.81 85.6202 307.041 90.0821 308.981L97.8419 312.473C101.334 314.025 102.498 314.898 102.498 316.838C102.498 319.263 100.558 319.942 95.8049 319.942C95.5139 319.942 93.671 319.845 93.671 319.845C88.3362 319.651 83.8743 317.905 83.8743 317.905C83.7773 317.905 83.2923 317.711 82.9043 318.002C81.6434 319.263 83.4863 325.277 86.2992 325.956C86.2992 325.956 88.1422 326.247 89.4031 326.441C89.4031 326.441 94.544 326.829 95.1259 326.829C105.311 326.829 109.675 323.628 109.675 316.741C109.675 311.018 106.766 308.593 102.013 306.556L93.671 302.967C91.2461 301.9 90.2761 301.027 90.2761 299.281C90.2761 297.147 91.8281 296.371 96.5809 296.371C99.5878 296.371 102.207 296.759 104.05 297.244C104.535 297.438 106.572 298.214 107.251 297.826C108.512 296.759 106.96 291.037 104.147 290.261C103.468 289.97 100.073 289.388 96.6779 289.388C86.9782 289.388 82.9043 292.589 82.9043 299.184Z" fill="white"/>
<path d="M315.891 299.184C315.891 304.81 318.607 307.041 323.069 308.981L330.829 312.473C334.321 314.025 335.485 314.898 335.485 316.838C335.485 319.263 333.545 319.942 328.792 319.942C328.501 319.942 326.658 319.845 326.658 319.845C321.323 319.651 316.861 317.905 316.861 317.905C316.764 317.905 316.279 317.711 315.891 318.002C314.63 319.263 316.473 325.277 319.286 325.956C319.286 325.956 321.129 326.247 322.39 326.441C322.39 326.441 327.531 326.732 328.113 326.732C338.298 326.732 342.662 323.628 342.662 316.644C342.662 310.921 339.752 308.496 335 306.459L326.658 302.87C324.233 301.803 323.263 300.93 323.263 299.184C323.263 297.05 324.815 296.274 329.568 296.274C332.575 296.274 335.194 296.662 337.037 297.147C337.522 297.341 339.558 298.117 340.237 297.729C341.498 296.662 339.946 290.94 337.134 290.164C336.455 289.97 333.06 289.388 329.665 289.388C320.062 289.388 315.891 292.589 315.891 299.184Z" fill="white"/>
<path d="M374.644 569.926C371.379 580.296 364.277 588.765 354.639 593.78L351.922 595.196C342.285 600.211 331.272 601.174 320.925 597.903C310.577 594.632 302.099 587.525 297.086 577.879L240.313 468.675L99.1251 542.221C82.1706 551.04 61.1842 544.424 52.3677 527.44L29.2062 482.88C-10.7137 500.664 -58.2177 484.438 -78.6401 445.146L-114.697 375.77C-135.919 334.949 -120.005 284.455 -79.2051 263.221C-69.6383 258.244 -59.5471 255.301 -49.4222 254.266C-16.3664 250.838 17.0142 267.514 33.2611 298.759L99.9113 426.973L177.788 386.429C181.722 384.379 185.932 383.121 190.212 382.677C194.875 382.194 199.623 382.672 204.218 384.121C213.054 386.906 220.276 392.979 224.544 401.195L247.594 445.543L276.505 430.483C284.728 426.212 294.114 425.388 302.935 428.175C311.771 430.961 318.993 437.034 323.261 445.249L371.931 538.874C376.943 548.52 377.907 559.541 374.641 569.896L374.644 569.926ZM18.0614 306.665C1.19736 274.215 -38.9119 261.551 -71.3194 278.421C-87.0274 286.603 -98.6029 300.403 -103.935 317.301C-109.268 334.2 -107.704 352.16 -99.5252 367.882L-63.4715 437.229C-55.293 452.95 -41.5025 464.537 -24.616 469.877C-15.8262 472.652 -6.73774 473.561 2.16076 472.638C10.3509 471.788 18.395 469.387 25.9242 465.471L84.7248 434.862L18.0925 306.677L18.0614 306.665ZM209.346 409.115C207.184 404.951 203.524 401.882 199.052 400.465C194.579 399.048 189.82 399.467 185.659 401.63L44.4522 475.134L67.5215 519.525C71.9929 528.122 82.617 531.469 91.2084 527.01L232.397 453.478L209.347 409.13L209.346 409.115ZM356.749 546.808L308.079 453.183C305.917 449.018 302.258 445.95 297.785 444.532C293.313 443.115 288.553 443.534 284.392 445.698L255.481 460.757L312.255 569.962C315.16 575.542 320.062 579.661 326.062 581.562C332.061 583.463 338.432 582.906 344.007 579.999L346.724 578.583C352.3 575.676 356.415 570.771 358.313 564.768C360.211 558.764 359.654 552.388 356.749 546.808Z" fill="#A9BE00"/>
</g>
<defs>
<linearGradient id="paint0_linear_10315_115841" x1="226.5" y1="0" x2="226.5" y2="605" gradientUnits="userSpaceOnUse">
<stop stop-color="#000329"/>
<stop offset="1" stop-color="#293189"/>
</linearGradient>
<linearGradient id="paint1_linear_10315_115841" x1="226.5" y1="0" x2="226.5" y2="605" gradientUnits="userSpaceOnUse">
<stop stop-color="#000329" stop-opacity="0"/>
<stop offset="1" stop-color="#000329" stop-opacity="0.4"/>
</linearGradient>
<clipPath id="clip0_10315_115841">
<rect width="453" height="605" rx="8" fill="white"/>
</clipPath>
</defs>
</svg>
